<svg xmlns="http://www.w3.org/2000/svg" viewBox="0 0 50 50"><title>info</title><path d="M25,50A25,25,0,1,1,50,25,25,25,0,0,1,25,50ZM25,2A23,23,0,1,0,48,25,23,23,0,0,0,25,2Z"/><path d="M23.21,18.08A1.47,1.47,0,0,1,22.76,17v-.12a1.54,1.54,0,0,1,1.53-1.53h.18A1.53,1.53,0,0,1,26,16.88V17a1.54,1.54,0,0,1-1.53,1.53h-.18A1.47,1.47,0,0,1,23.21,18.08Zm.18,18.63a1.3,1.3,0,0,1-.39-1V22.88a1.36,1.36,0,0,1,.39-1,1.28,1.28,0,0,1,1-.41,1.34,1.34,0,0,1,1.38,1.38V35.75a1.28,1.28,0,0,1-.41,1,1.36,1.36,0,0,1-1,.39A1.31,1.31,0,0,1,23.39,36.71Z"/></svg>