<svg xmlns="http://www.w3.org/2000/svg" viewBox="0 0 50 50"><title>kalendar</title><path d="M42.19,4.69H35.94V3.12a1.56,1.56,0,1,0-3.13,0V4.69H17.19V3.12a1.48,1.48,0,0,0-1.56-1.56,1.48,1.48,0,0,0-1.56,1.56V4.69H7.81A7.74,7.74,0,0,0,0,12.5V40.62a7.74,7.74,0,0,0,7.81,7.81H42.19A7.74,7.74,0,0,0,50,40.62V12.5a7.74,7.74,0,0,0-7.81-7.81ZM3.13,12.5A4.81,4.81,0,0,1,7.81,7.81h6.25V9.38a1.48,1.48,0,0,0,1.56,1.56,1.48,1.48,0,0,0,1.56-1.56V7.81H32.81V9.38a1.56,1.56,0,1,0,3.13,0V7.81h6.25a4.81,4.81,0,0,1,4.69,4.69v4.69H3.13ZM46.87,40.62a4.81,4.81,0,0,1-4.69,4.69H7.81a4.81,4.81,0,0,1-4.69-4.69V20.31H46.87Zm0,0"/><path d="M10.94,40.62a2.84,2.84,0,0,0,2.19-.94,3,3,0,0,0,0-4.37,3,3,0,0,0-4.38,0,2.84,2.84,0,0,0-.94,2.19,3.38,3.38,0,0,0,.94,2.19,2.84,2.84,0,0,0,2.19.94Zm0,0"/><path d="M10.94,31.25a2.84,2.84,0,0,0,2.19-.94,3.38,3.38,0,0,0,.94-2.19,3.37,3.37,0,0,0-.94-2.19,3,3,0,0,0-4.38,0,3,3,0,0,0,0,4.37,2.84,2.84,0,0,0,2.19.94Zm0,0"/><path d="M20.31,40.62a2.84,2.84,0,0,0,2.19-.94,3,3,0,0,0,0-4.37,3,3,0,0,0-4.37,0,3,3,0,0,0,0,4.37,2.84,2.84,0,0,0,2.19.94Zm0,0"/><path d="M20.31,31.25a2.84,2.84,0,0,0,2.19-.94,3.37,3.37,0,0,0,.94-2.19,3.37,3.37,0,0,0-.94-2.19,3,3,0,0,0-4.37,0,3.37,3.37,0,0,0-.94,2.19,3.38,3.38,0,0,0,.94,2.19,2.84,2.84,0,0,0,2.19.94Zm0,0"/><path d="M29.69,40.62a3.09,3.09,0,0,0,2.19-5.31,3,3,0,0,0-4.37,0,3,3,0,0,0,0,4.37,2.84,2.84,0,0,0,2.19.94Zm0,0"/><path d="M29.69,31.25a3.2,3.2,0,0,0,3.12-3.13,3.37,3.37,0,0,0-.94-2.19,3,3,0,0,0-4.37,0,3.37,3.37,0,0,0-.94,2.19,3.38,3.38,0,0,0,.94,2.19,2.84,2.84,0,0,0,2.19.94Zm0,0"/><path d="M39.06,40.62a2.84,2.84,0,0,0,2.19-.94,3,3,0,0,0,0-4.37,3,3,0,0,0-4.38,0,2.84,2.84,0,0,0-.94,2.19,3.38,3.38,0,0,0,.94,2.19,2.84,2.84,0,0,0,2.19.94Zm0,0"/><path d="M39.06,31.25a3.2,3.2,0,0,0,3.13-3.13,3.38,3.38,0,0,0-.94-2.19,3,3,0,0,0-4.38,0,3.38,3.38,0,0,0-.94,2.19,3.38,3.38,0,0,0,.94,2.19,2.84,2.84,0,0,0,2.19.94Zm0,0"/></svg>