<svg xmlns="http://www.w3.org/2000/svg" viewBox="0 0 50 50"><title>lide</title><circle cx="39.25" cy="18.6" r="5.99"/><circle cx="11.12" cy="18.6" r="5.99"/><path d="M32.13,38.44a4.75,4.75,0,0,0,4.75-4.75V32.06a7.71,7.71,0,0,0-5.8-7.47,8.05,8.05,0,0,1-11.82-.08,7.71,7.71,0,0,0-6.13,7.55v1.62a4.75,4.75,0,0,0,4.75,4.75Z"/><circle cx="25.2" cy="19.06" r="6.51"/><path d="M11.11,33.68V32.06a9.71,9.71,0,0,1,2.48-6.46,7.38,7.38,0,0,1-7.94-2A7.1,7.1,0,0,0,0,30.56v1.49a4.37,4.37,0,0,0,4.37,4.37h7.32A6.72,6.72,0,0,1,11.11,33.68Z"/><path d="M44.66,23.69a7.41,7.41,0,0,1-8.42,1.7,9.7,9.7,0,0,1,2.66,6.67v1.62a6.72,6.72,0,0,1-.59,2.74h7.32A4.37,4.37,0,0,0,50,32.05V30.56A7.09,7.09,0,0,0,44.66,23.69Z"/></svg>