<svg xmlns="http://www.w3.org/2000/svg" viewBox="0 0 50 50"><title>lupa</title><path d="M19,38.07A18.86,18.86,0,0,1,5.56,32.48a19.15,19.15,0,0,1,0-27,19,19,0,0,1,26.9,0,19.15,19.15,0,0,1,0,27A18.86,18.86,0,0,1,19,38.07ZM19,1.69A17.06,17.06,0,0,0,6.84,6.75a17.36,17.36,0,0,0,0,24.46,17.19,17.19,0,0,0,24.36,0,17.36,17.36,0,0,0,0-24.46A17.09,17.09,0,0,0,19,1.69ZM46.45,50.11a3.33,3.33,0,0,1-2.38-1L28.71,33.69l4.93-4.95L49,44.17a3.38,3.38,0,0,1,0,4.77l-.18.18a3.35,3.35,0,0,1-2.38,1ZM31.24,33.7,45.35,47.86a1.61,1.61,0,0,0,2.22,0l.18-.18a1.58,1.58,0,0,0,0-2.23L33.64,31.29l-2.39,2.4Z"/></svg>