<svg xmlns="http://www.w3.org/2000/svg" viewBox="0 0 50 50"><title>obalka</title><path d="M4.8,17.47l5.72,4q4.77,3.31,7.31,5.09l1.19.85q.91.66,1.51,1.06c.4.27.88.57,1.45.91a8.42,8.42,0,0,0,1.6.75,4.45,4.45,0,0,0,1.4.25H25a4.45,4.45,0,0,0,1.4-.25,8.55,8.55,0,0,0,1.6-.75c.57-.34,1.05-.64,1.45-.91s.9-.62,1.51-1.06l1.19-.85,13.06-9.07A13.24,13.24,0,0,0,48.63,14,7.37,7.37,0,0,0,50,9.82a4.28,4.28,0,0,0-1.33-3.15,4.31,4.31,0,0,0-3.14-1.31H4.46A4,4,0,0,0,1.16,6.81,5.63,5.63,0,0,0,0,10.44a6.52,6.52,0,0,0,1.54,3.81A13.83,13.83,0,0,0,4.8,17.47Zm0,0"/><path d="M47.21,20.45q-9.15,6.19-13.89,9.62-1.59,1.17-2.58,1.83a15.71,15.71,0,0,1-2.64,1.34,8,8,0,0,1-3.07.68H25a8,8,0,0,1-3.07-.68,15.81,15.81,0,0,1-2.64-1.34q-1-.65-2.58-1.83-3.77-2.76-13.87-9.62A14.8,14.8,0,0,1,0,18V40.18a4.3,4.3,0,0,0,1.31,3.15,4.3,4.3,0,0,0,3.15,1.31H45.54A4.48,4.48,0,0,0,50,40.18V18a15.45,15.45,0,0,1-2.79,2.43Zm0,0"/></svg>