<svg xmlns="http://www.w3.org/2000/svg" viewBox="0 0 50 50"><title>obalka-2</title><path d="M45,43.33H5a5,5,0,0,1-5-5V11.67a5,5,0,0,1,5-5H45a5,5,0,0,1,5,5V38.33A5,5,0,0,1,45,43.33ZM5,8.33a3.34,3.34,0,0,0-3.33,3.33V38.33A3.33,3.33,0,0,0,5,41.67H45a3.33,3.33,0,0,0,3.33-3.33V11.67A3.34,3.34,0,0,0,45,8.33ZM25.4,30.9A7.3,7.3,0,0,1,20,28.48L7.06,14.34a.83.83,0,1,1,1.23-1.12L21.22,27.35a5.72,5.72,0,0,0,8.36,0L42.49,13.23a.83.83,0,0,1,1.23,1.13L30.81,28.48a7.31,7.31,0,0,1-5.41,2.42ZM7.67,37.53a.83.83,0,0,1-.56-1.45L18.48,25.7a.83.83,0,1,1,1.13,1.23L8.24,37.32A.83.83,0,0,1,7.67,37.53Zm35.46,0a.83.83,0,0,1-.56-.22L31.19,26.93a.83.83,0,0,1,1.12-1.23L43.69,36.09a.83.83,0,0,1-.56,1.45Z"/></svg>