<svg xmlns="http://www.w3.org/2000/svg" viewBox="0 0 50 50"><title>telefon</title><path d="M23.08,41.27a4.22,4.22,0,0,1-1.72-.36l-3.14-1.39c-4.54-2-4.9-10.81-.82-20,3.46-7.82,9-13.29,13.4-13.29a4.86,4.86,0,0,1,2,.4L35.91,8a4.27,4.27,0,0,1,2.18,5.63l-.92,2.09a4.36,4.36,0,0,1-5.63,2.18L28.39,16.5C27.3,16,24.8,18.21,23.12,22a14,14,0,0,0-1.3,5.25c0,1.23.28,2.13.77,2.35L25.73,31a4.28,4.28,0,0,1,2.18,5.64L27,38.73a4.29,4.29,0,0,1-3.91,2.55ZM30.8,7.87c-3.67,0-8.77,5.28-11.86,12.29-3.57,8.09-3.59,16.25,0,17.82L22,39.37A2.65,2.65,0,0,0,25.45,38L26.37,36A2.59,2.59,0,0,0,25,32.54l-3.14-1.38c-1.16-.52-1.79-1.9-1.77-3.91a15.7,15.7,0,0,1,1.44-5.92c2-4.56,5.29-7.33,7.48-6.36l3.14,1.38A2.64,2.64,0,0,0,35.62,15l.93-2.09a2.59,2.59,0,0,0-1.32-3.42L32.09,8.13a3.18,3.18,0,0,0-1.29-.26ZM25,50c-3.95,0-6.36-.85-7.38-2.59-1.41-2.41.36-5.58,1.66-7.9l.19-.34a.84.84,0,1,1,1.47.82l-.19.35c-1,1.85-2.6,4.65-1.67,6.23.67,1.15,2.73,1.75,5.93,1.75A23.31,23.31,0,1,0,9.63,42.54.84.84,0,0,1,8.52,43.8,25,25,0,1,1,25,50Z"/></svg>