<svg xmlns="http://www.w3.org/2000/svg" viewBox="0 0 50 50"><title>twitter</title><path d="M50,9.5a20.5,20.5,0,0,1-5.89,1.62,10.33,10.33,0,0,0,4.52-5.68,20.44,20.44,0,0,1-6.53,2.49,10.25,10.25,0,0,0-17.73,7,10.65,10.65,0,0,0,.26,2.34A29.12,29.12,0,0,1,3.48,6.57,10.26,10.26,0,0,0,6.65,20.25,10.1,10.1,0,0,1,2,19v.13a10.28,10.28,0,0,0,8.22,10.07,10.58,10.58,0,0,1-2.7.35,10.36,10.36,0,0,1-1.94-.18,10.29,10.29,0,0,0,9.58,7.12A20.61,20.61,0,0,1,2.44,40.84,22,22,0,0,1,0,40.7a29,29,0,0,0,15.73,4.61c18.86,0,29.17-15.62,29.17-29.17l0-1.33A20.66,20.66,0,0,0,50,9.5Zm0,0"/></svg>