<svg xmlns="http://www.w3.org/2000/svg" viewBox="0 0 50 50"><title>svg-domek</title><circle cx="25" cy="25" r="25"/><path d="M40.44,39.38l-6-6a6.7,6.7,0,0,0-5-11.12,6.62,6.62,0,0,0-1.2.11V20.72H32.4l-4.6-4.64V9.28H22.7v1.59L20,8.11,7.51,20.72h4.21V33.46H24.47a6.66,6.66,0,0,0,4.92,2.2,6.56,6.56,0,0,0,4.25-1.52l6,6Zm-16.68-29h3V15l-3-3ZM20,9.63l9.92,10.06H10.06ZM12.82,32.4V20.72H27.16v1.95A6.68,6.68,0,0,0,22.73,29a6.8,6.8,0,0,0,1,3.47H12.82ZM23.76,29a5.65,5.65,0,1,1,5.67,5.63A5.62,5.62,0,0,1,23.76,29Z" style="fill:#fff"/></svg>