<svg xmlns="http://www.w3.org/2000/svg" viewBox="0 0 50 50"><title>svg-kladivko</title><circle cx="25" cy="25" r="25"/><path d="M43.27,24a1.8,1.8,0,0,0-2.16-.85L35.3,12.82a1.83,1.83,0,0,0,.39-2.3,1.94,1.94,0,0,0-1.1-.89,1.83,1.83,0,0,0-1.42.18h0L24.5,14.7a1.94,1.94,0,0,0-.89,1.1,1.83,1.83,0,0,0,.18,1.42,1.94,1.94,0,0,0,1.1.89,2.39,2.39,0,0,0,.5.07,1.6,1.6,0,0,0,.57-.11l2.2,3.9L22.2,25.28l-.57-1L9.7,30.95a2.56,2.56,0,0,0-1.27,1.63,2.61,2.61,0,0,0,.25,2.05A2.71,2.71,0,0,0,11,36a2.43,2.43,0,0,0,1.31-.35L24.29,29l-.57-1,5.95-3.33,2.09,3.72a1.83,1.83,0,0,0-.39,2.3,1.94,1.94,0,0,0,1.1.89,2.39,2.39,0,0,0,.5.07,1.52,1.52,0,0,0,.89-.25l8.71-4.89a1.94,1.94,0,0,0,.89-1.1A1.83,1.83,0,0,0,43.27,24ZM11.86,34.77a1.52,1.52,0,0,1-1.24.14,1.56,1.56,0,0,1-1-.78,1.52,1.52,0,0,1-.14-1.24,1.69,1.69,0,0,1,.78-1l11-6.16,0,.07h0l.74,1.35.81,1.45Zm11.33-7.72-.25-.42-.21-.42,5.95-3.33.5.85Zm2-10a.78.78,0,0,1-.46-.35.71.71,0,0,1-.07-.6.78.78,0,0,1,.35-.46l8.71-4.89h0a.71.71,0,0,1,.39-.11.45.45,0,0,1,.21,0,.78.78,0,0,1,.46.35.79.79,0,0,1-.28,1.06L28,15.76,25.78,17A1.05,1.05,0,0,1,25.21,17.07Zm1.7.5,7.51-4.21,5.74,10.23-7.51,4.25-2.58-4.6-1-1.81h0Zm15.51,7.54a.78.78,0,0,1-.35.46l-8.71,4.89a.71.71,0,0,1-.6.07.78.78,0,0,1-.46-.35.79.79,0,0,1,.28-1.06l8.71-4.89a.79.79,0,0,1,1.06.28A.87.87,0,0,1,42.42,25.11Z" style="fill:#fff"/></svg>