<svg xmlns="http://www.w3.org/2000/svg" viewBox="0 0 50 50"><title>svg-kralik</title><circle cx="25" cy="25" r="25"/><path d="M22,23.12a4.7,4.7,0,0,0,.39,3.61c-2-.42-3.26-1.24-3.26-2,0-.5.53-.92.85-1.13l-.53-.92a2.37,2.37,0,0,0-1.35,2c0,1.91,3,3.36,7.12,3.36s7.12-1.45,7.12-3.36v-1.2a3.64,3.64,0,0,0-3.65-3.65h0C30.67,13,28.4,8.64,27.3,7.08a1.12,1.12,0,0,0-.78-.46,1.07,1.07,0,0,0-.85.32,11.51,11.51,0,0,0-2.83,8.36,11.2,11.2,0,0,0-7.61-3.54,1.12,1.12,0,0,0-.81.32,1,1,0,0,0-.28.85A12.27,12.27,0,0,0,22,23.12Zm4.39-15.4c1,1.38,3,5.17,1.42,11.33a11.9,11.9,0,0,1-1.27-6.66l-1.06-.14a12.93,12.93,0,0,0,1.56,7.61h-.89a8.56,8.56,0,0,1-1.66-.18l.92-.42-.07-.14A17.18,17.18,0,0,0,24,16.82C23.87,16,23.23,11,26.42,7.72Zm-2,11.83.07.11a8,8,0,0,1-5.13-3.51l-.21-.32-.92.53c.07.14.14.25.21.39a9.13,9.13,0,0,0,7.72,4.14h2.58a2.6,2.6,0,0,1,2.58,2.58v1.2c0,1.1-2.58,2.3-6.06,2.3-.46,0-.92,0-1.35-.07A3.65,3.65,0,0,1,23.19,23l.25-.57-.57-.18c-.07,0-7-2.12-7.72-9.45C17,12.92,21.6,13.7,24.4,19.55Z" style="fill:#fff"/><circle cx="25.71" cy="22.8" r="0.64" style="fill:#fff"/><circle cx="29" cy="22.8" r="0.64" style="fill:#fff"/><path d="M39.24,25.14c0-2.23-2.44-4.25-6.52-5.42l-.28,1c3.54,1,5.77,2.69,5.77,4.43,0,2.9-6,5.38-13.17,5.38s-13.17-2.44-13.17-5.38c0-1.42,1.49-2.8,4-3.82l-.39-1c-3,1.2-4.71,2.94-4.71,4.82s1.88,3.72,4.89,4.89V38a1.77,1.77,0,0,0,1.1,1.63,20.55,20.55,0,0,0,16.64-.5,1.81,1.81,0,0,0,1-1.59V30C37.36,28.82,39.24,27.09,39.24,25.14Zm-6.34,13A19.08,19.08,0,0,1,24.5,40a19.76,19.76,0,0,1-7.37-1.42.7.7,0,0,1-.42-.64V36.12a20.5,20.5,0,0,0,7.79,1.52,20,20,0,0,0,8.82-2v1.81A.79.79,0,0,1,32.9,38.14Zm.42-3.65a19,19,0,0,1-8.82,2.12A19.19,19.19,0,0,1,16.71,35v-4.6A27.68,27.68,0,0,0,25,31.55a27.51,27.51,0,0,0,8.29-1.17v4.11Z" style="fill:#fff"/></svg>