<svg xmlns="http://www.w3.org/2000/svg" viewBox="0 0 50 50"><title>svg-kravatak</title><path d="M25.73,21.63a2,2,0,0,1-1.95-1.95V18h.62v1.64A1.33,1.33,0,0,0,25.73,21ZM16.54,21a2.38,2.38,0,1,1,0-4.76v-.62a3,3,0,1,0,0,6Zm19.74-2.38a3,3,0,0,0-3-3v.62a2.38,2.38,0,1,1,0,4.76v.62A3,3,0,0,0,36.28,18.63Zm-2.69,1.86V14.21H33v6.28a7.65,7.65,0,0,1-7.64,7.64h-.83a7.65,7.65,0,0,1-7.64-7.64V14.21h-.62v6.28a8.27,8.27,0,0,0,8.26,8.26h.83A8.27,8.27,0,0,0,33.59,20.49ZM14.48,10.89a10.27,10.27,0,0,1,20.54,0v6h.62v-6a10.89,10.89,0,0,0-21.79,0v6.18h.62ZM35.4,15s-4.06-1-6.65-6.26l-.22-.45-.31.39c0,.05-4.18,5.21-14.07,5.53l0,.62c8.77-.29,13.08-4.18,14.22-5.41,2.72,5.2,6.69,6.14,6.86,6.18Z"/><path d="M13.74,49.69h-.62v-7h.62Zm29.15-6.82A10.22,10.22,0,0,0,32.68,32.66v.62a9.6,9.6,0,0,1,9.59,9.59v6.51H7.73V42.87a9.6,9.6,0,0,1,9.59-9.59v-.62A10.22,10.22,0,0,0,7.11,42.87V50H42.89Zm-6-.16h-.62v7h.62Z"/><path d="M29.76,30.25,29.1,31V27.64h-.62v4l-3.57,3.88-3.57-3.88v-4h-.62V31l-.66-.71-3.31,2.64.1.2L21.58,49.7l.61,0,1.55-8.4h2.7L28,49.67l.61,0L33,33.08l.1-.2ZM20,31.1l4.46,4.83-4,3-3-5.87Zm1.82,17.15L18.34,36.06l1.92,3.82,1.8-1.36L23.16,41Zm4.6-7.6H23.68l-1.11-2.52,2.33-1.76,2.35,1.78Zm1.94,7.54L27,40.9h0l.8-2.37,1.77,1.34,2.06-4.1Zm1-9.26-4-3,4.46-4.83,2.46,2Z"/></svg>