<svg xmlns="http://www.w3.org/2000/svg" viewBox="0 0 50 50"><title>svg-osoba</title><circle cx="25" cy="25" r="25"/><path d="M25.5,21.07a.54.54,0,0,1-.53-.53V19.48H23.9v1.06a1.59,1.59,0,0,0,1.59,1.59Z" style="fill:#fff"/><path d="M30.24,28.72,28.08,27l-.07.07v-1a5.68,5.68,0,0,0,2.83-4,2.32,2.32,0,0,0,1.88-2.27,2.23,2.23,0,0,0-.32-1.17V14.73a7.47,7.47,0,1,0-14.94,0v3.93a2.23,2.23,0,0,0-.32,1.17A2.32,2.32,0,0,0,19,22.1a5.78,5.78,0,0,0,2.83,4v1L21.78,27l-2.16,1.74a7,7,0,0,0-6.69,7V38.7A2.09,2.09,0,0,0,15,40.79H35a2.09,2.09,0,0,0,2.09-2.09V35.76A7.1,7.1,0,0,0,30.24,28.72Zm-2-.25,1.17.92-1.63,3.26-2-1.49ZM24.47,35h1.24l.85,4.67H23.62ZM25.71,34H24.36l-.53-1.24L25,31.87l1.17.89Zm5.28-13V18.7a1.25,1.25,0,0,1,.71,1.1A1.19,1.19,0,0,1,31,20.93ZM25,8.32a6.41,6.41,0,0,1,6.41,6.41v1.95c-.78-.07-2.62-.6-3.79-3.47l-.35-.92-.57.81s-2.27,3.15-8.11,3.54V14.73A6.39,6.39,0,0,1,25,8.32ZM18.24,19.83a1.17,1.17,0,0,1,.71-1.1V21A1.26,1.26,0,0,1,18.24,19.83ZM20,21V17.56a12.28,12.28,0,0,0,7-3.19,5.93,5.93,0,0,0,3,3V21a4.67,4.67,0,0,1-4.67,4.67h-.53A4.69,4.69,0,0,1,20,21Zm3,5.49a5.74,5.74,0,0,0,1.74.28h.53a5.57,5.57,0,0,0,1.74-.28v1.7l-2,2.2-2-2.2v-1.7Zm-1.27,1.95,2.48,2.69-2,1.52L20.5,29.39ZM14,38.67v-2.9a6,6,0,0,1,5.52-5.95l2.27,4.46,1.17-.89.5,1.17-1,5.13H15A1,1,0,0,1,14,38.67Zm22,0a1,1,0,0,1-1,1H27.62l-1-5.24.35-1,1.1.85,2.27-4.5A6,6,0,0,1,36,35.73v2.94Z" style="fill:#fff"/></svg>