<svg xmlns="http://www.w3.org/2000/svg" viewBox="0 0 50 50"><title>svg-presipacky</title><circle cx="25" cy="25" r="25"/><path d="M32.51,18.06V11.61h1.1V10.55H16.43v1.06h1.1v6.44a7.54,7.54,0,0,0,4.75,7A7.41,7.41,0,0,0,17.53,32v6.44h-1.1v1.06H33.6V38.42h-1.1V32a7.54,7.54,0,0,0-4.75-7A7.49,7.49,0,0,0,32.51,18.06ZM18.59,11.61H31.44v6.44a6.49,6.49,0,0,1-1.38,4H19.94a6.49,6.49,0,0,1-1.38-4V11.61Zm0,26.81V35h2.94a3.52,3.52,0,0,0,2.94-1.59l.25-.39a.42.42,0,0,1,.32-.18.33.33,0,0,1,.32.18l.25.39A3.48,3.48,0,0,0,28.54,35h2.94v3.47ZM31.44,32v1.88H28.51a2.52,2.52,0,0,1-2.05-1.1l-.25-.39a1.42,1.42,0,0,0-.67-.53V30.49H24.47v1.35a1.42,1.42,0,0,0-.67.53l-.25.39a2.39,2.39,0,0,1-2.05,1.1H18.56V32a6.47,6.47,0,0,1,5.91-6.41v3h1.06v-3A6.44,6.44,0,0,1,31.44,32ZM21,23.05h8a6.43,6.43,0,0,1-4,1.42A6.33,6.33,0,0,1,21,23.05Z" style="fill:#fff"/></svg>