<svg xmlns="http://www.w3.org/2000/svg" viewBox="0 0 50 50"><title>svg-ruka</title><circle cx="25" cy="25" r="25"/><path d="M41.43,29.89A2.43,2.43,0,0,0,38.28,29l-6.2,3.12a9.24,9.24,0,0,1-4.11,1h-2.2a8.89,8.89,0,0,1-3.15-.6L21.46,32l-.39,1,1.17.46a9.26,9.26,0,0,0,3.54.67H28a10.22,10.22,0,0,0,4.57-1.1L38.74,30a1.36,1.36,0,0,1,1.77.5,1.32,1.32,0,0,1,.18,1,1.24,1.24,0,0,1-.6.85l-7.9,4.89a5.4,5.4,0,0,1-2.87.81H26.24a5.23,5.23,0,0,1-2.41-.57l-3-1.45a18.38,18.38,0,0,0-5.35-1.17v-.07H14.38V27.66h4.78a4.22,4.22,0,0,1,2.23.67L23.94,30a6.59,6.59,0,0,0,3.65,1.1h1.35a2.41,2.41,0,0,1,1.74.71l.74-.74a3.5,3.5,0,0,0-2.51-1H27.55a5.49,5.49,0,0,1-3-.92L22,27.44a5,5,0,0,0-2.8-.85H14.38v-1a2.49,2.49,0,0,0-2.48-2.48H8.75v1.06H11.9a1.42,1.42,0,0,1,1.42,1.42V36.15a1.42,1.42,0,0,1-1.42,1.42H8.75v1.06H11.9a2.49,2.49,0,0,0,2.48-2.48v-.32a18.58,18.58,0,0,1,6,1.13l3,1.45a6.69,6.69,0,0,0,2.87.67h3.08a6.41,6.41,0,0,0,3.4-1l7.9-4.89a2.4,2.4,0,0,0,1.1-1.52A2.24,2.24,0,0,0,41.43,29.89Z" style="fill:#fff"/><path d="M31.23,27.8a8.5,8.5,0,1,0-8.5-8.5A8.52,8.52,0,0,0,31.23,27.8Zm0-16a7.44,7.44,0,1,1-7.44,7.44A7.44,7.44,0,0,1,31.23,11.83Z" style="fill:#fff"/><path d="M27.76,19.9a.35.35,0,0,0,.25.6h.64a4.31,4.31,0,0,0,.64,1.27,3,3,0,0,0,1.1.89A3.19,3.19,0,0,0,31.8,23a3.09,3.09,0,0,0,1.42-.32.39.39,0,0,0,.21-.35.37.37,0,0,0-.39-.39.39.39,0,0,0-.18,0,3,3,0,0,1-1.06.18,2.24,2.24,0,0,1-1.38-.46,2.64,2.64,0,0,1-.89-1.17h2.37a.35.35,0,0,0,0-.71H29.39c0-.14,0-.25,0-.32a1.33,1.33,0,0,1,0-.39h3a.35.35,0,0,0,0-.71H29.57a2.47,2.47,0,0,1,.85-1.13,2.25,2.25,0,0,1,1.35-.42,3,3,0,0,1,1.06.18A.39.39,0,0,0,33,17a.37.37,0,0,0,.39-.39.36.36,0,0,0-.21-.35A3.19,3.19,0,0,0,31.76,16a3,3,0,0,0-2,.67,3.7,3.7,0,0,0-1.13,1.7h-.67a.35.35,0,0,0,0,.71h.53c0,.18,0,.32,0,.39v.32h-.5S27.8,19.83,27.76,19.9Z" style="fill:#fff"/></svg>