<?xml version="1.0" standalone="no"?>
<!DOCTYPE svg PUBLIC "-//W3C//DTD SVG 20010904//EN"
 "http://www.w3.org/TR/2001/REC-SVG-20010904/DTD/svg10.dtd">
<svg version="1.0" xmlns="http://www.w3.org/2000/svg"
 width="192.000000pt" height="192.000000pt" viewBox="0 0 192.000000 192.000000"
 preserveAspectRatio="xMidYMid meet">
<metadata>
Created by potrace 1.11, written by Peter Selinger 2001-2013
</metadata>
<g transform="translate(0.000000,192.000000) scale(0.100000,-0.100000)"
fill="#000000" stroke="none">
<path d="M1060 1726 c-117 -42 -567 -242 -617 -274 -90 -58 -137 -114 -213
-256 -15 -28 -64 -116 -109 -196 -44 -80 -81 -153 -81 -162 0 -57 41 -78 159
-79 100 -1 96 5 52 -79 -13 -25 -29 -52 -36 -60 -22 -28 -37 -79 -31 -105 10
-38 59 -55 161 -55 81 0 95 -5 76 -25 -7 -9 -35 -58 -87 -155 -27 -50 -12 -92
38 -109 22 -8 190 -11 546 -11 472 1 518 2 562 19 92 35 109 56 251 308 134
239 158 297 145 349 -7 27 -92 118 -142 150 -21 14 -22 17 -8 49 32 77 14 128
-73 200 -32 27 -62 52 -67 56 -4 4 -3 30 5 58 10 39 10 58 1 90 -11 36 -26 53
-103 116 -68 56 -145 121 -149 126 -3 3 -22 18 -44 34 -53 40 -143 44 -236 11z"/>
</g>
</svg>
