<svg id="logo-db" data-name="logo-db" xmlns="http://www.w3.org/2000/svg" viewBox="0 0 46.63 39.85"><defs></defs><title>logo-db</title><path fill="#707070" d="M6.27 5.18h1.24c5.65 0 8.94 3 8.94 8.59 0 5.92-4 8.13-9.83 8.13h-.35zM0 27.08h7.78c7.51 0 15.32-3.64 15.32-13.66C23.1 3.64 15.17 0 8.13 0H0zM33.67 5.15h.77c1.51 0 2.9 0 3.79.62A2.58 2.58 0 0 1 39.2 8c0 1.86-1.55 2.79-4.41 2.79h-1.12zM40 19a2.4 2.4 0 0 1-1.31 2.36 9.41 9.41 0 0 1-4 .54h-1v-6.15h2.59C38.7 15.75 40 17 40 19zm-12.57 8h7.08a19.41 19.41 0 0 0 7.09-1 7.65 7.65 0 0 0 5-7.08 6.51 6.51 0 0 0-4.26-6.08 5.57 5.57 0 0 0 3.1-5 7 7 0 0 0-3.29-6.08A13.77 13.77 0 0 0 34.79 0H27.4z"/><path fill="#707070" d="M0 32.64h46.63v7.21H0z"/></svg>
