<?xml version="1.0" encoding="utf-8"?>
<!-- Generator: Adobe Illustrator 21.0.2, SVG Export Plug-In . SVG Version: 6.00 Build 0)  -->
<svg version="1.1" id="Vrstva_1" xmlns="http://www.w3.org/2000/svg" xmlns:xlink="http://www.w3.org/1999/xlink" x="0px" y="0px"
	 viewBox="0 0 649.6 119.8" enable-background="new 0 0 649.6 119.8" xml:space="preserve">
<g>
	<g>
		<path fill="#231F20" d="M188.5,73.1l-2.9,7.8c-0.7,2-1.1,2.7-1.9,3.3c-0.7,0.5-1.5,0.9-2.4,0.9c-1.2,0-2.4-0.5-3.2-1.3
			c-1.7-1.7-1.1-3.5-0.3-5.8l17.8-47.3c0.6-1.7,1.1-2.4,1.8-3c0.9-0.8,1.8-1.2,3.2-1.2c1.4,0,2.4,0.4,3.2,1.2c0.7,0.7,1.1,1.3,1.8,3
			l17.8,47.3c0.9,2.3,1.4,4.1-0.3,5.8c-0.8,0.8-2,1.3-3.2,1.3c-0.9,0-1.8-0.3-2.4-0.9c-0.8-0.7-1.2-1.4-1.9-3.3l-2.9-7.8H188.5z
			 M200.6,40.2l-9.3,25.4h18.6L200.6,40.2z"/>
		<path fill="#231F20" d="M254,48.7c0-2,0.1-2.7,0.6-3.7c0.6-1.1,1.8-2,3.5-2c1.8,0,3,0.9,3.5,2c0.5,1,0.6,1.7,0.6,3.7v30.6
			c0,2.3-0.2,3-0.7,4c-0.7,1.1-2,1.8-3.4,1.8c-1.3,0-2.6-0.5-3.4-1.6c-0.4-0.6-0.7-1.2-0.7-2.7c-2.8,3-6.8,4.5-10.9,4.5
			c-4.2,0-7.7-1.4-10.2-3.7c-3.2-3.1-4.2-7-4.2-11.6V48.7c0-2,0.1-2.7,0.6-3.7c0.6-1.1,1.8-2,3.5-2c1.8,0,3,0.9,3.5,2
			c0.5,1,0.6,1.7,0.6,3.7v19.8c0,6.4,3.7,9.1,8.3,9.1c4.6,0,8.6-2.8,8.6-9.1V48.7z"/>
		<path fill="#231F20" d="M304.9,84.3c-0.8,0.5-1.5,0.7-2.3,0.7c-1.9,0-2.8-1.1-4-3.1l-10-16l-6.3,7.3v6.1c0,2-0.1,2.7-0.6,3.7
			c-0.6,1.1-1.8,2-3.5,2c-1.8,0-3-0.9-3.5-2c-0.5-1-0.6-1.7-0.6-3.7V32c0-2,0.1-2.7,0.6-3.7c0.6-1.1,1.8-2,3.5-2c1.8,0,3,0.9,3.5,2
			c0.5,1,0.6,1.7,0.6,3.7v30.4l14.9-17c1.5-1.8,2.5-2.4,3.8-2.4c0.9,0,1.8,0.3,2.6,1c1,0.9,1.3,1.7,1.3,2.7c0,1.1-0.4,2.1-1.9,3.7
			l-8.5,9.7l11,17.4c1,1.6,1.4,2.5,1.4,3.5C306.8,82.4,306.1,83.6,304.9,84.3z"/>
		<path fill="#231F20" d="M330.4,42.9c3.7,0,6.3,0.8,9,2.6c2.2,1.4,4,2.9,4,5c0,1-0.4,2-1.2,2.7c-0.6,0.6-1.6,1.1-2.6,1.1
			c-1.1,0-1.9-0.4-3.3-1.6c-2.1-1.7-3.7-2.3-6-2.3c-3.3,0-5.7,1.2-7.5,3.5c-1.8,2.4-2.5,5.3-2.5,10.1c0,4.8,0.7,7.7,2.5,10.1
			c1.8,2.4,4.3,3.6,7.5,3.6c2.3,0,4-0.7,6-2.3c1.4-1.1,2.2-1.6,3.3-1.6c1,0,2,0.5,2.6,1.1c0.7,0.8,1.2,1.7,1.2,2.7c0,2.1-2,3.6-4,5
			c-2.6,1.7-5.3,2.6-9,2.6c-9.4,0-18.3-5.7-18.3-21.1C312,48.6,321,42.9,330.4,42.9z"/>
		<path fill="#231F20" d="M366.8,42.9c10.8,0,17.2,7.9,17.5,18.8c0,1.2-0.1,2.7-1.1,3.7c-1.1,1.1-2.4,1.1-3.7,1.1h-22
			c0,7,3.7,11.6,10.6,11.6c2.9,0,5.7-0.8,7.9-2.6c1.3-1,2.3-1.5,3.4-1.5c1.7,0,3.4,1.6,3.4,3.5c0,1.9-2.1,3.7-4.2,5
			c-2.6,1.7-6.4,2.6-10.8,2.6c-10.3,0-18.6-5.4-18.6-21.1C349.2,50.5,356.2,42.9,366.8,42.9z M374.9,55.1c-1.4-3.1-4.2-5.2-8.1-5.2
			c-4,0-6.8,2.1-8.2,5.2c-0.8,1.8-1,3.1-1.1,5.6H376C375.9,58.2,375.7,56.8,374.9,55.1z"/>
		<path fill="#231F20" d="M401.5,84.7c-1.3,0-2.9,0-4.1-1.3s-1.3-2.8-1.3-4.1V32.1c0-1.3,0-2.9,1.3-4.1c1.3-1.3,2.8-1.3,4.1-1.3
			h17.2c10.8,0,17.5,6.1,17.5,15.9c0,6.3-3.9,10.8-7.8,12.3c4.5,1.8,8.7,6.1,8.7,13.4c0,10.7-7.3,16.4-17.5,16.4H401.5z M417.9,51.3
			c5.6,0,9.5-3,9.5-8.4c0-5.4-3.8-8.4-9.5-8.4h-13v16.7H417.9z M404.9,59.1v17.8h13.9c6.1,0,9.5-3.8,9.5-9c0-5.1-3.4-8.8-9.5-8.8
			H404.9z"/>
		<path fill="#231F20" d="M461.2,93c-0.8,2.3-1.7,3.9-3,5.1c-2.3,2.2-5.1,3.1-8.1,3.1c-1.4,0-3-0.2-3.8-1c-0.7-0.7-1.2-1.5-1.2-2.8
			c0-1.3,0.4-2.3,1.3-2.9c0.7-0.6,1.4-0.8,2.8-0.8c2.4,0,4.2-1,5.3-4.4l2-6.1l-11.6-33.6c-0.5-1.5-0.9-2.7-0.4-4
			c0.4-1.3,2-2.5,3.9-2.5c2.5,0,3.3,1.8,4,4l8.1,25.3l8.3-25.3c0.7-2.2,1.5-4,4-4c1.9,0,3.5,1.2,3.9,2.5c0.4,1.3,0.1,2.5-0.4,4
			L461.2,93z"/>
		<path fill="#231F20" d="M514.9,79.3c0,2.3-0.2,3-0.7,4c-0.7,1.1-2,1.8-3.4,1.8c-1.3,0-2.6-0.5-3.4-1.6c-0.4-0.6-0.7-1.2-0.7-2.9
			c-3.1,3.6-6.5,4.7-10.8,4.7c-4.2,0-7.8-1.4-10.1-3.7c-4-4.1-4.6-10.7-4.6-17.5c0-6.8,0.6-13.4,4.6-17.4c2.3-2.3,5.9-3.7,10-3.7
			c4.4,0,7.8,1.1,10.8,4.6V32c0-2,0.1-2.7,0.6-3.7c0.6-1.1,1.8-2,3.5-2c1.8,0,3,0.9,3.5,2c0.5,1,0.6,1.7,0.6,3.7V79.3z M498,77.7
			c7.5,0,8.6-6.3,8.6-13.6c0-7.3-1.1-13.6-8.6-13.6c-7.5,0-8.6,6.3-8.6,13.6C489.4,71.4,490.5,77.7,498,77.7z"/>
		<path fill="#231F20" d="M526.2,32c0-2,0.1-2.7,0.6-3.7c0.6-1.1,1.8-2,3.5-2c1.8,0,3,0.9,3.5,2c0.5,1,0.6,1.7,0.6,3.7v40.9
			c0,2.9,1.1,4.7,4.2,4.8c1.3,0,2.3,0.2,3,0.6c1,0.5,1.7,1.5,1.7,2.9c0,1.4-0.7,2.4-1.7,2.9c-0.7,0.4-1.8,0.7-3.5,0.7h-0.8
			c-7.8,0-11.2-5.4-11.2-11.4V32z"/>
		<path fill="#231F20" d="M564.4,42.9c10.8,0,17.2,7.9,17.5,18.8c0,1.2-0.1,2.7-1.1,3.7c-1.1,1.1-2.4,1.1-3.7,1.1h-22
			c0,7,3.7,11.6,10.6,11.6c2.9,0,5.7-0.8,7.9-2.6c1.3-1,2.3-1.5,3.4-1.5c1.7,0,3.4,1.6,3.4,3.5c0,1.9-2.1,3.7-4.2,5
			c-2.6,1.7-6.4,2.6-10.8,2.6c-10.3,0-18.6-5.4-18.6-21.1C546.9,50.5,553.9,42.9,564.4,42.9z M572.6,55.1c-1.4-3.1-4.2-5.2-8.1-5.2
			c-4,0-6.8,2.1-8.2,5.2c-0.8,1.8-1,3.1-1.1,5.6h18.6C573.6,58.2,573.4,56.8,572.6,55.1z"/>
		<path fill="#231F20" d="M599.5,79.4c0,2-0.1,2.7-0.6,3.7c-0.6,1.1-1.8,2-3.5,2c-1.8,0-3-0.9-3.5-2c-0.5-1-0.6-1.7-0.6-3.7V48.8
			c0-2.3,0.2-3,0.7-4c0.7-1.1,2-1.8,3.4-1.8c1.3,0,2.6,0.5,3.4,1.6c0.4,0.6,0.7,1.2,0.7,2.7c2.9-3,6.8-4.5,10.9-4.5
			c4.2,0,7.7,1.4,10.2,3.7c3.2,3.1,4.2,7,4.2,11.6v21.1c0,2-0.1,2.7-0.6,3.7c-0.6,1.1-1.8,2-3.5,2c-1.8,0-3-0.9-3.5-2
			c-0.5-1-0.6-1.7-0.6-3.7V59.5c0-6.4-3.7-9.1-8.3-9.1c-4.6,0-8.6,2.8-8.6,9.1V79.4z"/>
		<path fill="#231F20" d="M643.5,83.1c-0.6,1.1-1.8,2-3.5,2c-1.8,0-3-0.9-3.5-2c-0.5-1-0.6-1.7-0.6-3.7V48.7c0-2,0.1-2.7,0.6-3.7
			c0.6-1.1,1.8-2,3.5-2c1.8,0,3,0.9,3.5,2c0.5,1,0.6,1.7,0.6,3.7v30.6C644.1,81.4,644,82.1,643.5,83.1z M644.5,33.8
			c-0.6,0.9-1.2,1.8-1.8,2.2c-0.6,0.4-1.2,0.7-1.9,0.7c-0.7,0-1.3-0.2-2-0.6c-1.3-0.8-1.8-1.9-1.8-3.1c0-0.9,0.4-1.5,1.3-3l3.8-6.1
			c0.6-0.9,1.2-1.8,1.8-2.2c0.6-0.4,1.2-0.7,1.9-0.7c0.6,0,1.3,0.2,2,0.6c1.3,0.8,1.8,1.9,1.8,3.1c0,0.9-0.4,1.5-1.3,3L644.5,33.8z"
			/>
	</g>
	<path fill="#B2E0DA" d="M137.9,69.7c-0.3-2-1.2-3.7-2.6-5.1c-0.9-0.9-1.8-1.7-2.8-2.5c-2.6-2.2-5.3-4.4-7.9-6.7
		c-2.8-2.4-5.7-4.8-8.5-7.2c-1.2-1.1-2.6-2-4.1-2.5c-1.7-0.5-3.4-0.7-5.1-0.7c-1.5,0-2.9,0.1-4.4,0.4c-3,0.5-5.9,1.6-8.6,2.8
		c-3.8,1.7-7.6,3.3-11.4,4.9c-3.2,1.4-6.4,2.8-9.6,4.2c-3.3,1.4-6.5,2.8-9.8,4.2c-2.4,1.1-4.9,2.1-7.3,3.3
		c-4.4,2.2-8.4,4.9-11.8,8.5c-1.6,1.7-3.1,3.5-4.2,5.6c-2.6,4.7-5.3,9.4-7.9,14.1c-3.3,5.9-6.5,11.7-9.8,17.6
		c-0.7,1.3-1.1,2.6-1,4.1c0.2,1.7,1.2,2.9,2.6,3.7c1.7,1,3.6,1.3,5.6,1.3c11.9,0,23.8,0,35.6,0c11.9,0,23.8,0,35.7,0
		c1.2,0,2.3-0.1,3.5-0.3c3.7-0.6,7-2.1,9.9-4.3c1.6-1.2,3-2.5,3.9-4.3c6-10.7,11.9-21.3,17.9-32C137.5,76,138.5,73,137.9,69.7z"/>
	<path fill="#79D0C5" d="M127.4,47.1c-0.3-2-1.2-3.7-2.6-5.1c-0.9-0.9-1.8-1.7-2.8-2.4c-2.6-2.2-5.3-4.4-7.9-6.7
		c-2.8-2.4-5.7-4.8-8.5-7.2c-1.2-1.1-2.6-2-4.1-2.5c-1.7-0.5-3.4-0.7-5.1-0.7c-1.5,0-2.9,0.2-4.4,0.4c-3,0.5-5.9,1.6-8.6,2.8
		c-3.8,1.7-7.6,3.3-11.4,4.9c-3.2,1.4-6.4,2.8-9.6,4.2c-3.3,1.4-6.5,2.8-9.8,4.2c-2.5,1.1-4.9,2.1-7.3,3.3
		c-4.4,2.2-8.4,4.9-11.8,8.5c-1.6,1.7-3.1,3.5-4.2,5.6c-2.6,4.7-5.3,9.4-7.9,14.1c-3.3,5.8-6.5,11.7-9.8,17.6
		c-0.7,1.3-1.1,2.6-1,4.1c0.2,1.7,1.2,2.9,2.6,3.7c1.7,1,3.6,1.3,5.6,1.3c11.9,0,23.8,0,35.6,0c11.9,0,23.8,0,35.7,0
		c1.2,0,2.3-0.1,3.5-0.3c3.7-0.6,7-2.1,9.9-4.3c1.6-1.2,3-2.5,3.9-4.3c6-10.7,11.9-21.3,17.9-32C127,53.4,128,50.4,127.4,47.1z"/>
	<path fill="#0AC1A2" d="M116.9,24.6c-0.3-2-1.2-3.7-2.6-5.1c-0.9-0.9-1.8-1.7-2.8-2.4c-2.6-2.2-5.3-4.4-7.9-6.7
		C100.7,8,97.9,5.6,95,3.2c-1.2-1.1-2.6-2-4.1-2.5C89.2,0.2,87.5,0,85.8,0c-1.5,0-2.9,0.1-4.4,0.4c-3,0.5-5.9,1.6-8.6,2.8
		C69,4.9,65.2,6.5,61.4,8.2c-3.2,1.4-6.4,2.8-9.6,4.2c-3.3,1.4-6.5,2.8-9.8,4.2c-2.5,1.1-4.9,2.1-7.3,3.3c-4.4,2.2-8.4,4.9-11.8,8.5
		c-1.6,1.7-3.1,3.5-4.2,5.6c-2.6,4.7-5.3,9.4-7.9,14.1C7.5,53.9,4.3,59.7,1,65.6c-0.7,1.3-1.1,2.6-1,4.1c0.2,1.7,1.2,2.9,2.6,3.7
		c1.7,1,3.6,1.3,5.6,1.3c11.9,0,23.8,0,35.6,0c11.9,0,23.8,0,35.7,0c1.2,0,2.3-0.1,3.5-0.3c3.7-0.6,7-2.1,9.9-4.3
		c1.6-1.2,3-2.5,3.9-4.3c6-10.7,11.9-21.3,17.9-32C116.5,30.9,117.4,27.9,116.9,24.6z"/>
</g>
</svg>
