<svg xmlns="http://www.w3.org/2000/svg" viewBox="0 0 50 50"><title>svg-kravatak</title><path d="M25.73 21.63a2 2 0 0 1-1.95-1.95V18h.62v1.64A1.33 1.33 0 0 0 25.73 21zM16.54 21a2.38 2.38 0 1 1 0-4.76v-.62a3 3 0 1 0 0 6zm19.74-2.38a3 3 0 0 0-3-3v.62a2.38 2.38 0 1 1 0 4.76v.62a3 3 0 0 0 3-2.99zm-2.69 1.86v-6.27H33v6.28a7.65 7.65 0 0 1-7.64 7.64h-.83a7.65 7.65 0 0 1-7.64-7.64v-6.28h-.62v6.28a8.27 8.27 0 0 0 8.26 8.26h.83a8.27 8.27 0 0 0 8.23-8.26zm-19.11-9.59a10.27 10.27 0 0 1 20.54 0v6h.62v-6a10.89 10.89 0 0 0-21.79 0v6.18h.62zM35.4 15s-4.06-1-6.65-6.26l-.22-.45-.31.39c0 .05-4.18 5.21-14.07 5.53v.62c8.77-.29 13.08-4.18 14.22-5.41 2.72 5.2 6.69 6.14 6.86 6.18zM13.74 49.69h-.62v-7h.62zm29.15-6.82a10.22 10.22 0 0 0-10.21-10.21v.62a9.6 9.6 0 0 1 9.59 9.59v6.51H7.73v-6.51a9.6 9.6 0 0 1 9.59-9.59v-.62A10.22 10.22 0 0 0 7.11 42.87V50h35.78zm-6-.16h-.62v7h.62z"/><path d="M29.76 30.25l-.66.75v-3.36h-.62v4l-3.57 3.88-3.57-3.88v-4h-.62V31l-.66-.71-3.31 2.64.1.2 4.73 16.57h.61l1.55-8.4h2.7L28 49.67h.61L33 33.08l.1-.2zM20 31.1l4.46 4.83-4 3-3-5.87zm1.82 17.15l-3.48-12.19 1.92 3.82 1.8-1.36 1.1 2.48zm4.6-7.6h-2.74l-1.11-2.52 2.33-1.76 2.35 1.78zm1.94 7.54L27 40.9l.8-2.37 1.77 1.34 2.06-4.1zm1-9.26l-4-3 4.46-4.83 2.46 2z"/></svg>