<svg xmlns="http://www.w3.org/2000/svg" viewBox="0 0 50 50"><title>svg-osoba</title><circle cx="25" cy="25" r="25" fill="#0ac1a2"/><path d="M25.5 21.07a.54.54 0 0 1-.53-.53v-1.06H23.9v1.06a1.59 1.59 0 0 0 1.59 1.59z" fill="#fff"/><path d="M30.24 28.72L28.08 27l-.07.07v-1a5.68 5.68 0 0 0 2.83-4 2.32 2.32 0 0 0 1.88-2.27 2.23 2.23 0 0 0-.32-1.17v-3.9a7.47 7.47 0 1 0-14.94 0v3.93a2.23 2.23 0 0 0-.32 1.17A2.32 2.32 0 0 0 19 22.1a5.78 5.78 0 0 0 2.83 4v1l-.05-.1-2.16 1.74a7 7 0 0 0-6.69 7v2.96A2.09 2.09 0 0 0 15 40.79h20a2.09 2.09 0 0 0 2.09-2.09v-2.94a7.1 7.1 0 0 0-6.85-7.04zm-2-.25l1.17.92-1.63 3.26-2-1.49zM24.47 35h1.24l.85 4.67h-2.94zm1.24-1h-1.35l-.53-1.24 1.17-.89 1.17.89zm5.28-13v-2.3a1.25 1.25 0 0 1 .71 1.1 1.19 1.19 0 0 1-.7 1.13zM25 8.32a6.41 6.41 0 0 1 6.41 6.41v1.95c-.78-.07-2.62-.6-3.79-3.47l-.35-.92-.57.81s-2.27 3.15-8.11 3.54v-1.91A6.39 6.39 0 0 1 25 8.32zm-6.76 11.51a1.17 1.17 0 0 1 .71-1.1V21a1.26 1.26 0 0 1-.71-1.17zM20 21v-3.44a12.28 12.28 0 0 0 7-3.19 5.93 5.93 0 0 0 3 3V21a4.67 4.67 0 0 1-4.67 4.67h-.53A4.69 4.69 0 0 1 20 21zm3 5.49a5.74 5.74 0 0 0 1.74.28h.53a5.57 5.57 0 0 0 1.74-.28v1.7l-2 2.2-2-2.2v-1.7zm-1.27 1.95l2.48 2.69-2 1.52-1.71-3.26zM14 38.67v-2.9a6 6 0 0 1 5.52-5.95l2.27 4.46 1.17-.89.5 1.17-1 5.13H15a1 1 0 0 1-1-1.02zm22 0a1 1 0 0 1-1 1h-7.38l-1-5.24.35-1 1.1.85 2.27-4.5A6 6 0 0 1 36 35.73v2.94z" fill="#fff"/></svg>