<svg xmlns="http://www.w3.org/2000/svg" viewBox="0 0 50 50"><title>svg-panacek</title><circle cx="25" cy="25" r="25" fill="#0ac1a2"/><path d="M23.8 19.58a3.36 3.36 0 1 0-3.36-3.36 3.36 3.36 0 0 0 3.36 3.36zm0-5.67a2.3 2.3 0 1 1-2.3 2.3 2.3 2.3 0 0 1 2.3-2.29z" fill="#fff"/><path d="M27.8 23.12l3.79-1.06a1.64 1.64 0 0 0 1-.85 2.14 2.14 0 0 0 .21-.67l.27-3.54 3.54 3.19.71-.78-6.73-6.06 3.26-3.65a1.42 1.42 0 0 0 .25-1.52 1.38 1.38 0 0 0-.89-.78L33 7.29a.32.32 0 0 1-.21-.21l-.07-.18a1.38 1.38 0 0 0-.89-.78l-.18-.07a.32.32 0 0 1-.21-.21l-.07-.18a1.38 1.38 0 0 0-.89-.78 1.39 1.39 0 0 0-1.48.43l-4 4.46.57.5.18.14 4.11 3.68.81.74a1.64 1.64 0 0 0-.92 1.35l-.21 2.58a.57.57 0 0 1-.39.5l-1.63.46a7 7 0 0 1-1.7.25h-4.67a2.58 2.58 0 0 0-1.24.32l-5.63 3.26a1.68 1.68 0 1 0 1.7 2.9l4.14-2.37v4.71L19.05 36a1.94 1.94 0 0 0 .6 1.74 10.49 10.49 0 0 0-1.7.78l-4.64 2.58.53.92 4.64-2.62a10.91 10.91 0 0 1 10.62 0l4.65 2.6.53-.92-4.64-2.62a13.52 13.52 0 0 0-1.81-.81s.11-.07.14-.14a2 2 0 0 0 .42-1.42l-.92-7.37.07-5.21a.3.3 0 0 1 .26-.39zm2-17.07a.4.4 0 0 1 .39-.11.32.32 0 0 1 .21.21l.07.18a1.38 1.38 0 0 0 .89.78l.18.07a.32.32 0 0 1 .21.21l.07.18a1.38 1.38 0 0 0 .89.78l.18.07a.32.32 0 0 1 .21.21.32.32 0 0 1-.1.37l-3.26 3.65-3.22-3zM22.63 37a.94.94 0 0 0 .11-.42l1-6.69.81 6.59a2 2 0 0 0 .14.5 13.8 13.8 0 0 0-2.06.02zm4.64-.78a.73.73 0 0 1-.18.6.74.74 0 0 1-.57.28.88.88 0 0 1-.89-.78l-.78-6.55a1.1 1.1 0 0 0-1.06-1 1.07 1.07 0 0 0-1.06.92l-1 6.69a.7.7 0 0 1-.35.53.82.82 0 0 1-.64.14.85.85 0 0 1-.64-1l1.1-7.19v-5a1 1 0 0 0-.5-.85.93.93 0 0 0-1 0l-4.28 2.48a.62.62 0 0 1-.64-1.06l5.63-3.26a1.61 1.61 0 0 1 .71-.18h4.71a7.45 7.45 0 0 0 2-.28l1.63-.46a1.63 1.63 0 0 0 1.17-1.42l.18-2.55a.62.62 0 0 1 .21-.42.71.71 0 0 1 .46-.14.62.62 0 0 1 .42.21.71.71 0 0 1 .14.46l-.28 4.07a.66.66 0 0 1-.07.25.71.71 0 0 1-.39.32l-3.79 1.07a1.45 1.45 0 0 0-1.06 1.42l-.07 5.28z" fill="#fff"/></svg>