<svg xmlns="http://www.w3.org/2000/svg" viewBox="0 0 50 50"><title>svg-presipacky</title><circle cx="25" cy="25" r="25" fill="#0ac1a2"/><path d="M32.51 18.06v-6.45h1.1v-1.06H16.43v1.06h1.1v6.44a7.54 7.54 0 0 0 4.75 7A7.41 7.41 0 0 0 17.53 32v6.44h-1.1v1.06H33.6v-1.08h-1.1V32a7.54 7.54 0 0 0-4.75-7 7.49 7.49 0 0 0 4.76-6.94zm-13.92-6.45h12.85v6.44a6.49 6.49 0 0 1-1.38 4H19.94a6.49 6.49 0 0 1-1.38-4v-6.44zm0 26.81V35h2.94a3.52 3.52 0 0 0 2.94-1.59l.25-.39a.42.42 0 0 1 .32-.18.33.33 0 0 1 .32.18l.25.39A3.48 3.48 0 0 0 28.54 35h2.94v3.47zM31.44 32v1.88h-2.93a2.52 2.52 0 0 1-2.05-1.1l-.25-.39a1.42 1.42 0 0 0-.67-.53v-1.37h-1.07v1.35a1.42 1.42 0 0 0-.67.53l-.25.39a2.39 2.39 0 0 1-2.05 1.1h-2.94V32a6.47 6.47 0 0 1 5.91-6.41v3h1.06v-3A6.44 6.44 0 0 1 31.44 32zM21 23.05h8a6.43 6.43 0 0 1-4 1.42 6.33 6.33 0 0 1-4-1.42z" fill="#fff"/></svg>