<svg xmlns="http://www.w3.org/2000/svg" viewBox="0 0 50 50"><title>svg-stitek-25</title><circle cx="25" cy="25" r="25" fill="#0ac1a2"/><path d="M17.21 24.89h-1.49v-1.52a.35.35 0 0 0-.71 0v1.52h-1.55a.32.32 0 0 0-.25.11.4.4 0 0 0-.11.28.36.36 0 0 0 .35.35H15v1.52a.35.35 0 0 0 .71 0v-1.51h1.49a.35.35 0 0 0 .25-.6c-.1-.04-.13-.15-.24-.15zM19.83 27.12a8.37 8.37 0 0 1 1-.71c.46-.32.85-.57 1.17-.81a2.69 2.69 0 0 0 .74-.81 1.76 1.76 0 0 0 .32-1 1.9 1.9 0 0 0-.28-1 2.07 2.07 0 0 0-.78-.69 2.14 2.14 0 0 0-1.06-.25 4.48 4.48 0 0 0-2.05.46.36.36 0 0 0-.21.35.37.37 0 0 0 .53.32 4 4 0 0 1 1.59-.32 1.56 1.56 0 0 1 1.1.32 1.17 1.17 0 0 1 .35.85 1.14 1.14 0 0 1-.21.64 1.64 1.64 0 0 1-.57.53c-.21.18-.53.35-.89.6s-.78.53-1.06.74a3.15 3.15 0 0 0-.67.71 1.64 1.64 0 0 0-.28.89.48.48 0 0 0 .5.5h3.58a.39.39 0 1 0 0-.78h-3.24a1.4 1.4 0 0 1 .42-.54zM28 24.65a2.38 2.38 0 0 0-1.17-.28 3.28 3.28 0 0 0-1.56.39l.28-1.95h2.69a.39.39 0 1 0 0-.78h-3a.35.35 0 0 0-.32.14.57.57 0 0 0-.18.35L24.36 25v.21a.51.51 0 0 0 .18.39.56.56 0 0 0 .42.14.45.45 0 0 0 .21 0 .44.44 0 0 0 .11-.07 2.84 2.84 0 0 1 1.42-.39 1.65 1.65 0 0 1 1.06.32 1.17 1.17 0 0 1 .39.92 1 1 0 0 1-.46 1 2.38 2.38 0 0 1-1.35.28 3.33 3.33 0 0 1-1.49-.39.39.39 0 0 0-.18 0 .37.37 0 0 0-.39.39.45.45 0 0 0 0 .21.28.28 0 0 0 .14.14 3.61 3.61 0 0 0 2 .53 2.65 2.65 0 0 0 1.87-.68 2 2 0 0 0 .64-1.52 2.05 2.05 0 0 0-.25-1.06 1.33 1.33 0 0 0-.68-.77zM35.16 25.32a1.32 1.32 0 0 0-1.1.46 1.86 1.86 0 0 0-.39 1.17 1.72 1.72 0 0 0 .39 1.17 1.54 1.54 0 0 0 2.2 0 1.86 1.86 0 0 0 .39-1.17 1.72 1.72 0 0 0-.39-1.17 1.32 1.32 0 0 0-1.1-.46zm.6 2.41a.67.67 0 0 1-.6.28.76.76 0 0 1-.6-.28 1.23 1.23 0 0 1-.21-.74 1.16 1.16 0 0 1 .21-.74.67.67 0 0 1 .6-.28.76.76 0 0 1 .6.28A1.31 1.31 0 0 1 36 27a1.09 1.09 0 0 1-.24.73zM32.51 24.68a1.86 1.86 0 0 0 .39-1.17 1.72 1.72 0 0 0-.39-1.17 1.54 1.54 0 0 0-2.2 0 1.86 1.86 0 0 0-.39 1.17 1.72 1.72 0 0 0 .39 1.17 1.54 1.54 0 0 0 2.2 0zm-1.7-.42a1.31 1.31 0 0 1-.21-.74 1.16 1.16 0 0 1 .21-.74.67.67 0 0 1 .6-.28.76.76 0 0 1 .6.28 1.31 1.31 0 0 1 .21.74 1.16 1.16 0 0 1-.21.74.78.78 0 0 1-1.2 0zM35.48 22.2a.25.25 0 0 0-.28-.28.24.24 0 0 0-.25.14l-3.79 6a.21.21 0 0 0 0 .14.31.31 0 0 0 .11.21.26.26 0 0 0 .21.07h.14c.03 0 .11-.07.11-.11l3.72-5.95a.5.5 0 0 0 .03-.22z" fill="#fff"/><path d="M38.28 17.14H11.76a2.54 2.54 0 0 0-2.55 2.55v10.69a2.54 2.54 0 0 0 2.55 2.55h26.52a2.54 2.54 0 0 0 2.55-2.55V19.65a2.58 2.58 0 0 0-2.55-2.51zm1.45 13.21a1.5 1.5 0 0 1-1.49 1.49H11.76a1.5 1.5 0 0 1-1.49-1.49v-10.7a1.5 1.5 0 0 1 1.49-1.49h26.52a1.5 1.5 0 0 1 1.49 1.49v10.7z" fill="#fff"/></svg>